<svg width="40" height="40" viewBox="0 0 40 40" fill="none" xmlns="http://www.w3.org/2000/svg">
<path d="M29.5008 11.3336H26.8342V13.3336C26.8342 13.5262 26.7962 13.7169 26.7225 13.8948C26.6488 14.0728 26.5408 14.2345 26.4046 14.3707C26.2684 14.5069 26.1067 14.6149 25.9288 14.6886C25.7508 14.7623 25.5601 14.8002 25.3675 14.8002C25.1749 14.8002 24.9842 14.7623 24.8062 14.6886C24.6283 14.6149 24.4666 14.5069 24.3304 14.3707C24.1942 14.2345 24.0862 14.0728 24.0125 13.8948C23.9388 13.7169 23.9008 13.5262 23.9008 13.3336V11.3336H16.1342V13.3336C16.1342 13.7226 15.9796 14.0956 15.7046 14.3707C15.4295 14.6457 15.0565 14.8002 14.6675 14.8002C14.2785 14.8002 13.9055 14.6457 13.6304 14.3707C13.3553 14.0956 13.2008 13.7226 13.2008 13.3336V11.3336H10.5342C10.3755 11.3318 10.2181 11.3618 10.0713 11.4219C9.92441 11.482 9.79111 11.5709 9.67923 11.6834C9.56735 11.7959 9.47917 11.9297 9.4199 12.0769C9.36063 12.224 9.33147 12.3816 9.33416 12.5402V27.4602C9.33151 27.6161 9.35959 27.7709 9.41679 27.9159C9.47399 28.0609 9.55919 28.1932 9.66753 28.3052C9.77587 28.4173 9.90522 28.5069 10.0482 28.569C10.1912 28.631 10.345 28.6643 10.5008 28.6669H29.5008C29.6567 28.6643 29.8105 28.631 29.9534 28.569C30.0964 28.5069 30.2258 28.4173 30.3341 28.3052C30.4425 28.1932 30.5277 28.0609 30.5849 27.9159C30.6421 27.7709 30.6701 27.6161 30.6675 27.4602V12.5402C30.6701 12.3844 30.6421 12.2296 30.5849 12.0846C30.5277 11.9396 30.4425 11.8073 30.3341 11.6952C30.2258 11.5832 30.0964 11.4936 29.9534 11.4315C29.8105 11.3695 29.6567 11.3362 29.5008 11.3336ZM14.6675 24.6669H13.3342V23.3336H14.6675V24.6669ZM14.6675 21.3336H13.3342V20.0002H14.6675V21.3336ZM14.6675 18.0002H13.3342V16.6669H14.6675V18.0002ZM18.6675 24.6669H17.3342V23.3336H18.6675V24.6669ZM18.6675 21.3336H17.3342V20.0002H18.6675V21.3336ZM18.6675 18.0002H17.3342V16.6669H18.6675V18.0002ZM22.6675 24.6669H21.3342V23.3336H22.6675V24.6669ZM22.6675 21.3336H21.3342V20.0002H22.6675V21.3336ZM22.6675 18.0002H21.3342V16.6669H22.6675V18.0002ZM26.6675 24.6669H25.3342V23.3336H26.6675V24.6669ZM26.6675 21.3336H25.3342V20.0002H26.6675V21.3336ZM26.6675 18.0002H25.3342V16.6669H26.6675V18.0002Z" fill="#1C2434"/>
</svg>
