<svg width="20" height="20" viewBox="0 0 20 20" fill="none" xmlns="http://www.w3.org/2000/svg">
<path d="M2.0835 10.0007C2.0835 6.26898 2.0835 4.40232 3.24266 3.24315C4.40183 2.08398 6.26766 2.08398 10.0002 2.08398C13.7318 2.08398 15.5985 2.08398 16.7577 3.24315C17.9168 4.40232 17.9168 6.26815 17.9168 10.0007C17.9168 13.7323 17.9168 15.599 16.7577 16.7582C15.5985 17.9173 13.7327 17.9173 10.0002 17.9173C6.2685 17.9173 4.40183 17.9173 3.24266 16.7582C2.0835 15.599 2.0835 13.7332 2.0835 10.0007Z" stroke="#333333" stroke-opacity="0.7" stroke-width="1.5" stroke-linecap="round" stroke-linejoin="round"/>
<path d="M14.59 5.41797H14.5817M13.75 10.0013C13.75 10.9959 13.3549 11.9497 12.6516 12.653C11.9484 13.3562 10.9946 13.7513 10 13.7513C9.00544 13.7513 8.05161 13.3562 7.34835 12.653C6.64509 11.9497 6.25 10.9959 6.25 10.0013C6.25 9.00674 6.64509 8.05291 7.34835 7.34965C8.05161 6.64639 9.00544 6.2513 10 6.2513C10.9946 6.2513 11.9484 6.64639 12.6516 7.34965C13.3549 8.05291 13.75 9.00674 13.75 10.0013Z" stroke="#333333" stroke-opacity="0.7" stroke-width="1.5" stroke-linecap="round" stroke-linejoin="round"/>
</svg>
