<svg width="40" height="40" viewBox="0 0 40 40" fill="none" xmlns="http://www.w3.org/2000/svg">
<mask id="path-1-inside-1_106_800" fill="white">
<path d="M0 0H40V40H0V0Z"/>
</mask>
<path d="M40 38H0V42H40V38Z" fill="#109CF1" mask="url(#path-1-inside-1_106_800)"/>
<path fill-rule="evenodd" clip-rule="evenodd" d="M21.8726 10.152C21.4832 10 20.9885 10 20.0001 10C19.0117 10 18.518 10 18.1275 10.152C17.609 10.3542 17.1963 10.7438 16.9801 11.235C16.8812 11.458 16.8433 11.719 16.8275 12.098C16.8205 12.3726 16.7399 12.641 16.5933 12.8777C16.4466 13.1145 16.2389 13.3118 15.9896 13.451C15.7357 13.5851 15.4502 13.6561 15.1597 13.6575C14.8692 13.6589 14.5829 13.5907 14.3276 13.459C13.9718 13.281 13.7139 13.183 13.4592 13.151C12.9019 13.0815 12.3382 13.2238 11.8908 13.547C11.5561 13.789 11.3087 14.193 10.815 15C10.3203 15.807 10.074 16.21 10.0182 16.605C9.94454 17.131 10.0961 17.663 10.4393 18.084C10.5951 18.276 10.815 18.437 11.155 18.639C11.6571 18.936 11.9792 19.442 11.9792 20C11.9792 20.558 11.6571 21.064 11.1561 21.36C10.815 21.563 10.5951 21.724 10.4382 21.916C10.2688 22.1239 10.1445 22.3617 10.0724 22.6156C10.0003 22.8694 9.98191 23.1343 10.0182 23.395C10.074 23.789 10.3203 24.193 10.815 25C11.3098 25.807 11.5561 26.21 11.8908 26.453C12.3371 26.776 12.9013 26.918 13.4592 26.849C13.7139 26.817 13.9718 26.719 14.3276 26.541C14.5831 26.4092 14.8695 26.3408 15.1602 26.3422C15.451 26.3436 15.7366 26.4147 15.9907 26.549C16.5023 26.829 16.8054 27.344 16.8275 27.902C16.8433 28.282 16.8812 28.542 16.9801 28.765C17.1949 29.255 17.6075 29.645 18.1275 29.848C18.5169 30 19.0117 30 20.0001 30C20.9885 30 21.4832 30 21.8726 29.848C22.3911 29.6458 22.8038 29.2562 23.02 28.765C23.1189 28.542 23.1568 28.282 23.1726 27.902C23.1937 27.344 23.4979 26.828 24.0105 26.549C24.2644 26.4149 24.5499 26.3439 24.8404 26.3425C25.131 26.3411 25.4172 26.4093 25.6725 26.541C26.0283 26.719 26.2862 26.817 26.5409 26.849C27.0988 26.919 27.663 26.776 28.1093 26.453C28.444 26.211 28.6914 25.807 29.1851 25C29.6798 24.193 29.9261 23.79 29.9819 23.395C30.0181 23.1343 29.9995 22.8693 29.9272 22.6155C29.8549 22.3616 29.7304 22.1239 29.5608 21.916C29.4051 21.724 29.1851 21.563 28.8451 21.361C28.343 21.064 28.0209 20.558 28.0209 20C28.0209 19.442 28.343 18.936 28.844 18.64C29.1851 18.437 29.4051 18.276 29.5619 18.084C29.7313 17.8761 29.8556 17.6383 29.9277 17.3844C29.9998 17.1306 30.0182 16.8657 29.9819 16.605C29.9261 16.211 29.6798 15.807 29.1851 15C28.6903 14.193 28.444 13.79 28.1093 13.547C27.6619 13.2238 27.0982 13.0815 26.5409 13.151C26.2862 13.183 26.0283 13.281 25.6725 13.459C25.417 13.5908 25.1306 13.6592 24.8399 13.6578C24.5492 13.6564 24.2635 13.5853 24.0094 13.451C23.7604 13.3117 23.5528 13.1143 23.4064 12.8776C23.26 12.6408 23.1795 12.3725 23.1726 12.098C23.1568 11.718 23.1189 11.458 23.02 11.235C22.913 10.9917 22.7566 10.7709 22.5597 10.5851C22.3629 10.3992 22.1294 10.2521 21.8726 10.152ZM20.0001 23C21.7579 23 23.1821 21.657 23.1821 20C23.1821 18.343 21.7569 17 20.0001 17C18.2422 17 16.818 18.343 16.818 20C16.818 21.657 18.2433 23 20.0001 23Z" fill="#102334"/>
</svg>
