<svg width="20" height="20" viewBox="0 0 20 20" fill="none" xmlns="http://www.w3.org/2000/svg">
<path d="M9.99984 1.66602C8.35166 1.66602 6.7405 2.15476 5.37009 3.07044C3.99968 3.98611 2.93158 5.2876 2.30084 6.81032C1.67011 8.33304 1.50509 10.0086 1.82663 11.6251C2.14817 13.2416 2.94185 14.7265 4.10728 15.8919C5.27272 17.0573 6.75758 17.851 8.37409 18.1726C9.9906 18.4941 11.6662 18.3291 13.1889 17.6983C14.7116 17.0676 16.0131 15.9995 16.9288 14.6291C17.8444 13.2587 18.3332 11.6475 18.3332 9.99935C18.331 7.78989 17.4523 5.67155 15.89 4.10923C14.3276 2.5469 12.2093 1.66822 9.99984 1.66602ZM14.949 8.09352V8.63185C14.949 8.67305 14.9408 8.71384 14.9248 8.7518C14.9088 8.78976 14.8853 8.82413 14.8558 8.85287C14.8263 8.88162 14.7913 8.90415 14.7529 8.91915C14.7145 8.93414 14.6735 8.9413 14.6323 8.94018C13.7525 8.87782 12.9108 8.55656 12.2132 8.01685V11.9568C12.2131 12.3929 12.1261 12.8246 11.9572 13.2267C11.7884 13.6287 11.5411 13.9931 11.2298 14.2985C10.9158 14.6115 10.5426 14.859 10.132 15.0264C9.72138 15.1937 9.28157 15.2778 8.83817 15.2735C7.94645 15.272 7.09062 14.9221 6.45317 14.2985C6.04767 13.8897 5.75559 13.3823 5.60567 12.8264C5.45576 12.2704 5.45317 11.685 5.59817 11.1277C5.73067 10.5927 5.99817 10.101 6.37567 9.70018C6.6572 9.35609 7.01207 9.07926 7.41434 8.88995C7.8166 8.70064 8.25609 8.60363 8.70067 8.60602H9.38401V10.0252C9.38431 10.0664 9.37582 10.1072 9.35911 10.1449C9.3424 10.1826 9.31785 10.2162 9.28709 10.2437C9.25634 10.2711 9.22009 10.2917 9.18076 10.304C9.14143 10.3164 9.09992 10.3202 9.05901 10.3152C8.66225 10.196 8.23472 10.2355 7.86654 10.4254C7.49836 10.6153 7.21829 10.9408 7.08538 11.3331C6.95246 11.7255 6.97708 12.1542 7.15405 12.5287C7.33102 12.9033 7.6465 13.1945 8.03401 13.341C8.25901 13.4702 8.51067 13.546 8.76901 13.5635C8.96901 13.5718 9.16901 13.5468 9.35901 13.4868C9.67633 13.3801 9.95236 13.1768 10.1485 12.9055C10.3447 12.6342 10.4512 12.3083 10.4532 11.9735V4.79435C10.4531 4.75499 10.4607 4.716 10.4757 4.67961C10.4907 4.64321 10.5127 4.61014 10.5405 4.58227C10.5683 4.5544 10.6013 4.53229 10.6377 4.5172C10.674 4.50211 10.713 4.49435 10.7523 4.49435H11.9315C12.0082 4.49424 12.082 4.52358 12.1376 4.5763C12.1933 4.62903 12.2266 4.70111 12.2307 4.77768C12.2738 5.14533 12.3906 5.50051 12.5742 5.82196C12.7578 6.14342 13.0043 6.42454 13.299 6.64852C13.6974 6.94759 14.1706 7.13098 14.6665 7.17852C14.7408 7.18487 14.8102 7.21792 14.862 7.27154C14.9138 7.32516 14.9444 7.39573 14.9482 7.47018L14.949 8.09352Z" fill="#333333" fill-opacity="0.7"/>
</svg>
